<svg width="16" height="16" viewBox="0 0 16 16" fill="none" xmlns="http://www.w3.org/2000/svg">
<mask id="mask0_3902_6693" style="mask-type:alpha" maskUnits="userSpaceOnUse" x="0" y="0" width="16" height="16">
<path d="M0 6H5V4H7V5H8V6H9V7H10V9H9V10H8V11H7V12H5V10H0V16H16V0H0V6Z" fill="white"/>
</mask>
<g mask="url(#mask0_3902_6693)">
<circle cx="9" cy="8" r="7" fill="white"/>
<path d="M8.99929 11.3804C12.1101 15.5282 15.0913 10.2139 15.0913 6.97347C15.0913 3.21459 11.2028 1.01111 8.99929 1.01111C5.37003 1.01111 2 3.99229 2 8.0104C2 12.547 5.8885 15.0097 8.99929 15.0097C8.22159 14.8801 5.8885 14.3616 5.8885 9.04733C5.8885 5.41807 7.05505 3.99229 8.99929 4.64037C8.99929 4.64037 11.0732 5.41807 11.0732 8.0104C10.9435 10.6027 8.99929 11.3804 8.99929 11.3804Z" fill="url(#paint0_linear_3902_6693)"/>
<path d="M9.00045 4.64082C6.92658 3.99274 4.46387 5.67776 4.46387 9.04779C4.46387 14.4917 8.48198 15.0101 9.00045 15.0101C12.5001 15.0101 15.9997 12.029 15.9997 8.01085C15.9997 3.47427 12.1112 1.01156 9.00045 1.01156C9.77815 0.881942 13.537 1.91888 13.537 7.10354C13.537 10.4736 10.8151 12.2882 9.00045 11.5105C9.00045 11.5105 6.92658 10.7328 6.92658 8.14047C6.92658 5.41852 9.00045 4.64082 9.00045 4.64082Z" fill="url(#paint1_linear_3902_6693)"/>
</g>
<path d="M9 8L6 5V6.99998L0 6.99998V8.99998L6 8.99998V11L9 8Z" fill="#201E1E"/>
<defs>
<linearGradient id="paint0_linear_3902_6693" x1="3.97196" y1="3.22863" x2="13.7906" y2="13.0497" gradientUnits="userSpaceOnUse">
<stop stop-color="#201E1E"/>
<stop offset="1" stop-color="white"/>
</linearGradient>
<linearGradient id="paint1_linear_3902_6693" x1="14.2373" y1="12.6045" x2="4.41866" y2="2.78358" gradientUnits="userSpaceOnUse">
<stop stop-color="#201E1E"/>
<stop offset="1" stop-color="white"/>
</linearGradient>
</defs>
</svg>
