<svg width="16" height="16" viewBox="0 0 16 16" fill="none" xmlns="http://www.w3.org/2000/svg">
<g clip-path="url(#clip0_3902_6771)">
<mask id="mask0_3902_6771" style="mask-type:alpha" maskUnits="userSpaceOnUse" x="0" y="0" width="17" height="16">
<path d="M0 8L10 10V6H12V4H14V5H15V6H16V7H17V9H16V10H15V11H14V12H12V10H10L0 8V16H16V0H0V8Z" fill="#D30D52"/>
</mask>
<g mask="url(#mask0_3902_6771)">
<circle cx="7" cy="8" r="7" fill="white"/>
<path d="M6.99929 11.3804C10.1101 15.5282 13.0913 10.2139 13.0913 6.97347C13.0913 3.21459 9.20278 1.01111 6.99929 1.01111C3.37003 1.01111 0 3.99229 0 8.0104C0 12.547 3.8885 15.0097 6.99929 15.0097C6.22159 14.8801 3.8885 14.3616 3.8885 9.04733C3.8885 5.41807 5.05505 3.99229 6.99929 4.64037C6.99929 4.64037 9.07316 5.41807 9.07316 8.0104C8.94354 10.6027 6.99929 11.3804 6.99929 11.3804Z" fill="url(#paint0_linear_3902_6771)"/>
<path d="M7.00045 4.64082C4.92658 3.99274 2.46387 5.67776 2.46387 9.04778C2.46387 14.4917 6.48198 15.0101 7.00045 15.0101C10.5001 15.0101 13.9997 12.029 13.9997 8.01085C13.9997 3.47427 10.1112 1.01156 7.00045 1.01156C7.77815 0.881942 11.537 1.91888 11.537 7.10354C11.537 10.4736 8.81508 12.2882 7.00045 11.5105C7.00045 11.5105 4.92658 10.7328 4.92658 8.14047C4.92658 5.41852 7.00045 4.64082 7.00045 4.64082Z" fill="url(#paint1_linear_3902_6771)"/>
</g>
</g>
<path d="M16 8L13 5V6.99998L7 6.99998V8.99998L13 8.99998V11L16 8Z" fill="#201E1E"/>
<defs>
<linearGradient id="paint0_linear_3902_6771" x1="1.97196" y1="3.22863" x2="11.7906" y2="13.0497" gradientUnits="userSpaceOnUse">
<stop stop-color="#201E1E"/>
<stop offset="1" stop-color="white"/>
</linearGradient>
<linearGradient id="paint1_linear_3902_6771" x1="12.2373" y1="12.6045" x2="2.41866" y2="2.78358" gradientUnits="userSpaceOnUse">
<stop stop-color="#201E1E"/>
<stop offset="1" stop-color="white"/>
</linearGradient>
<clipPath id="clip0_3902_6771">
<rect width="16" height="16" fill="white"/>
</clipPath>
</defs>
</svg>
